<?xml version="1.0" standalone="no"?>
<!DOCTYPE svg PUBLIC "-//W3C//DTD SVG 20010904//EN"
 "http://www.w3.org/TR/2001/REC-SVG-20010904/DTD/svg10.dtd">
<svg version="1.0" xmlns="http://www.w3.org/2000/svg"
 width="300.000000pt" height="300.000000pt" viewBox="0 0 300.000000 300.000000"
 preserveAspectRatio="xMidYMid meet">
<metadata>
Created by potrace 1.11, written by Peter Selinger 2001-2013
</metadata>
<g transform="translate(0.000000,300.000000) scale(0.100000,-0.100000)"
fill="#000000" stroke="none">
<path d="M932 2047 c-18 -18 -29 -36 -26 -40 4 -4 3 -7 -2 -7 -5 0 -10 -11
-10 -25 -1 -14 2 -25 7 -25 5 0 8 -3 7 -7 -4 -17 14 -53 24 -47 6 4 14 1 18
-5 9 -16 60 -20 85 -7 11 6 25 10 30 11 6 0 10 6 10 13 0 7 5 16 11 20 14 9
24 62 12 62 -5 0 -7 4 -3 9 3 5 -2 16 -10 24 -8 9 -15 21 -15 28 0 7 -3 9 -6
6 -4 -3 -15 -2 -26 4 -26 14 -60 20 -53 10 2 -5 -4 -11 -16 -14 -16 -4 -18 -3
-8 9 22 26 3 14 -29 -19z"/>
<path d="M220 2044 c0 -5 -19 -10 -42 -10 l-43 1 0 -80 0 -80 105 0 c58 1 107
-2 110 -6 3 -4 5 -160 5 -347 0 -187 3 -338 7 -336 5 3 8 1 8 -3 0 -5 37 -7
83 -6 102 2 102 2 94 9 -3 3 -2 16 3 29 5 13 6 25 3 29 -11 11 -10 75 1 69 6
-4 5 1 -3 10 -11 14 -11 17 0 17 12 0 12 2 1 9 -17 11 -17 21 0 32 10 7 10 9
1 9 -7 0 -13 5 -13 11 0 5 4 8 8 5 5 -3 7 5 6 17 -1 12 -3 22 -4 22 0 0 -2 30
-3 68 -1 39 2 67 8 67 6 0 4 4 -3 9 -17 11 -17 21 0 32 10 7 10 9 1 9 -7 0
-13 5 -13 11 0 5 5 7 11 3 8 -5 8 -1 0 14 -13 25 -14 35 -3 28 5 -3 7 5 6 17
-1 12 -3 22 -4 22 -1 0 -2 17 -4 37 -2 21 1 35 6 32 4 -3 4 5 0 18 -5 13 -6
32 -3 43 6 19 14 21 109 20 56 0 102 3 102 8 0 4 4 6 9 2 5 -3 12 -1 16 5 3 5
1 10 -5 10 -6 0 -8 5 -4 12 12 18 11 58 -1 58 -5 0 -3 5 5 10 11 7 11 10 2 10
-9 0 -10 5 -3 19 14 25 0 27 -169 26 -83 0 -138 3 -142 10 -5 7 -8 7 -8 -1 0
-12 -89 -12 -110 1 -8 5 -11 4 -7 -2 8 -13 -106 -11 -115 2 -5 7 -8 6 -8 -1z"/>
<path d="M969 1815 c-3 -2 -19 -5 -37 -7 -19 -1 -32 -8 -32 -16 0 -7 4 -10 10
-7 5 3 7 0 4 -8 -10 -26 -9 -107 1 -107 6 0 6 -3 -1 -8 -13 -8 -14 -83 -1 -75
5 3 4 -4 -2 -15 -8 -15 -8 -22 2 -25 9 -4 9 -6 0 -6 -7 -1 -13 -6 -13 -12 0
-5 5 -7 12 -3 7 5 8 3 3 -5 -11 -19 -11 -90 0 -95 6 -3 4 -5 -2 -5 -7 -1 -13
-6 -13 -12 0 -5 5 -7 12 -3 7 5 8 3 3 -5 -11 -19 -9 -213 3 -220 12 -7 166 -6
179 2 9 6 10 58 0 74 -4 6 -3 13 0 17 11 10 12 36 2 36 -4 0 -6 6 -4 13 10 26
10 107 0 107 -6 0 -7 3 0 8 6 4 10 21 10 37 0 17 -4 33 -10 37 -7 5 -7 8 0 8
8 0 10 232 3 285 -1 6 -19 10 -40 10 -21 0 -38 -4 -38 -10 0 -5 -5 -3 -10 5
-8 12 -10 12 -10 1 0 -10 -3 -11 -13 -2 -8 6 -16 9 -18 6z"/>
<path d="M1612 1809 c2 -7 -2 -13 -9 -14 -7 0 -18 -6 -24 -12 -7 -7 -20 -13
-29 -13 -8 0 -24 -11 -34 -25 -22 -30 -33 -25 -32 12 2 44 -15 53 -97 53 -66
0 -75 -2 -80 -19 -3 -11 -2 -22 1 -26 10 -9 9 -134 -1 -128 -5 3 -4 -3 1 -14
6 -11 7 -25 2 -33 -5 -8 -6 -18 -4 -22 3 -5 7 -20 10 -34 3 -17 1 -23 -7 -19
-8 6 -8 2 -1 -12 6 -11 7 -25 2 -33 -6 -10 -3 -21 8 -34 9 -11 12 -16 6 -13
-8 5 -11 -16 -10 -73 1 -45 -2 -76 -7 -73 -5 3 -4 -3 1 -14 6 -11 7 -25 2 -33
-6 -10 -3 -21 8 -34 9 -11 12 -16 6 -13 -8 5 -11 -16 -10 -73 1 -45 -2 -76 -7
-73 -5 3 -4 -3 1 -14 6 -11 7 -25 1 -35 -6 -11 -4 -21 6 -31 11 -12 12 -17 2
-21 -6 -2 33 -4 88 -3 l100 2 1 150 c0 83 4 150 8 150 4 0 17 -9 29 -21 12
-11 32 -20 44 -19 13 1 19 -3 16 -8 -4 -6 0 -8 10 -4 10 3 17 3 17 -2 0 -8 41
-7 95 4 35 6 77 26 87 40 4 5 8 7 8 3 0 -4 15 7 34 25 18 18 32 35 30 39 -3 4
4 11 13 17 10 6 15 11 10 11 -4 0 1 12 10 27 14 21 15 25 3 18 -12 -7 -12 -5
1 11 9 10 14 25 12 32 -3 6 -1 12 4 12 5 0 9 9 10 20 1 11 -2 18 -8 15 -5 -4
-9 -2 -9 3 0 6 8 13 17 16 15 6 15 8 3 17 -12 7 -12 11 -2 17 10 7 10 11 -3
22 -11 9 -12 16 -5 25 6 8 7 16 2 19 -5 3 -8 19 -7 35 1 18 -2 28 -8 24 -6 -4
-8 1 -4 11 4 9 3 15 -1 12 -4 -2 -13 7 -20 22 -6 15 -22 38 -34 52 -13 14 -18
19 -13 10 9 -13 8 -13 -7 -1 -10 7 -18 20 -18 29 0 8 -3 12 -7 9 -3 -4 -20 2
-37 12 -22 13 -50 19 -93 19 -33 0 -66 3 -72 7 -7 3 -10 1 -9 -6z m32 -159
c17 4 66 -13 60 -21 -3 -5 2 -12 10 -15 9 -3 16 -12 16 -20 0 -8 4 -14 8 -14
9 0 10 -8 14 -92 2 -31 0 -54 -4 -52 -5 3 -8 -4 -8 -15 0 -12 -5 -21 -11 -21
-5 0 -8 -4 -4 -10 7 -11 -30 -51 -39 -43 -3 4 -6 2 -6 -3 0 -5 -12 -11 -26
-12 -15 -1 -34 -8 -42 -15 -13 -9 -14 -9 -8 1 5 8 0 12 -13 12 -12 0 -21 5
-21 10 0 6 -7 10 -15 10 -8 0 -15 4 -15 10 0 5 -10 18 -22 30 -15 14 -18 20
-7 20 8 0 10 3 4 8 -17 12 -12 145 5 160 8 8 9 11 3 7 -18 -9 -16 -2 7 25 11
13 20 19 20 14 0 -5 5 -1 11 9 6 9 14 15 20 12 5 -4 9 -2 9 4 0 6 7 8 15 5 9
-4 15 0 15 7 0 12 2 12 9 1 4 -8 11 -13 15 -12z"/>
<path d="M2184 1752 c-11 -9 -26 -18 -34 -20 -18 -3 -61 -53 -55 -63 3 -4 -2
-12 -11 -19 -12 -11 -12 -15 -2 -21 7 -5 8 -9 2 -9 -6 0 -11 -16 -11 -35 0
-19 4 -32 8 -30 4 3 10 -2 13 -11 4 -10 2 -13 -7 -9 -6 4 -4 0 6 -8 10 -9 19
-19 19 -24 1 -19 11 -33 23 -33 8 0 17 -5 21 -12 5 -7 2 -9 -7 -4 -8 4 -5 0 5
-8 11 -9 24 -16 29 -16 4 0 6 -4 2 -9 -3 -5 1 -15 8 -23 23 -23 18 -94 -9
-123 -13 -15 -28 -24 -33 -20 -5 3 -12 2 -15 -3 -6 -11 -76 -2 -76 9 0 5 -9 9
-20 9 -11 0 -19 -3 -19 -7 3 -20 -2 -34 -11 -28 -16 10 -11 -10 8 -32 10 -11
27 -19 42 -18 14 1 27 -1 30 -6 6 -9 84 6 120 24 29 14 50 32 50 43 0 4 7 16
16 26 25 26 25 138 1 162 -9 10 -15 21 -13 25 3 4 -4 14 -15 21 -10 8 -19 20
-19 27 0 7 -6 12 -12 10 -7 -1 -12 4 -10 11 1 8 -2 11 -8 7 -7 -4 -14 2 -17
14 -3 11 -8 19 -12 17 -4 -3 -7 14 -6 37 0 43 30 85 61 88 8 1 20 2 27 3 6 1
22 -1 35 -6 13 -4 22 -4 22 2 0 6 6 10 13 10 8 0 13 12 13 29 0 20 -4 27 -13
24 -7 -3 -13 1 -13 8 0 11 -3 11 -10 -1 -5 -8 -10 -10 -10 -4 0 12 -45 13 -56
1 -4 -4 -12 -2 -19 3 -8 6 -18 4 -31 -8z"/>
<path d="M2499 1748 c-3 -54 -2 -65 5 -77 5 -8 3 -17 -5 -22 -9 -6 -10 -9 -2
-9 6 0 12 -8 12 -17 1 -10 1 -39 2 -65 1 -27 5 -48 10 -48 6 0 5 -9 -1 -20 -6
-11 -7 -20 -2 -20 4 0 9 -19 10 -42 1 -24 3 -64 4 -90 1 -27 7 -48 13 -48 5 0
3 -5 -5 -10 -8 -5 -10 -10 -4 -10 18 0 8 -62 -15 -106 -27 -50 -111 -126 -130
-119 -9 3 -12 3 -8 -1 4 -4 -1 -13 -11 -20 -14 -11 -14 -13 -2 -14 13 0 13 -1
0 -10 -13 -8 -12 -10 3 -10 10 0 17 -8 17 -19 0 -23 29 -23 51 2 9 9 19 17 23
17 4 0 25 18 47 40 22 22 38 40 35 40 -3 0 6 12 19 26 14 15 25 33 25 41 0 8
5 11 12 7 6 -4 9 -3 6 2 -7 11 27 76 35 68 3 -3 3 3 0 15 -4 16 -1 21 13 22
11 0 13 3 7 6 -9 3 -9 11 3 29 9 13 14 24 10 24 -3 0 3 15 13 33 10 17 17 40
15 49 -1 10 3 16 9 15 6 -1 11 7 11 18 0 11 5 23 10 27 5 3 11 17 13 29 2 13
8 26 13 29 8 5 16 32 19 63 1 5 6 5 13 1 7 -4 8 -3 4 5 -4 6 -2 19 6 28 11 14
11 16 -2 9 -8 -4 -7 -1 4 8 10 8 15 19 11 25 -3 6 -1 11 5 11 6 0 8 5 5 10 -3
6 2 10 12 11 11 0 13 3 5 6 -10 4 -10 10 3 30 23 35 13 50 -29 48 -36 -1 -50
-9 -52 -26 -1 -5 -3 -11 -4 -14 -1 -3 -4 -9 -5 -15 -1 -5 -4 -12 -5 -15 -1 -3
-3 -11 -4 -17 -1 -7 -7 -12 -14 -11 -6 2 -9 -4 -6 -12 4 -9 1 -21 -5 -29 -6
-7 -8 -16 -4 -19 3 -4 1 -7 -4 -7 -6 0 -10 -8 -9 -17 3 -19 -12 -53 -29 -65
-6 -5 -5 -8 3 -8 7 0 10 -5 7 -10 -4 -6 -12 -7 -18 -3 -7 4 -6 0 2 -10 11 -14
11 -18 -2 -23 -9 -3 -13 -12 -10 -20 3 -8 1 -14 -4 -14 -5 0 -10 -7 -11 -15
-1 -8 -3 -22 -4 -30 -1 -8 -5 -15 -10 -15 -4 0 -7 -3 -6 -7 2 -5 -1 -8 -7 -8
-5 0 -9 3 -7 8 1 4 -4 7 -10 7 -9 0 -8 4 2 10 12 8 12 10 1 10 -10 0 -11 3 -2
14 8 10 9 16 1 21 -6 3 -8 11 -5 16 12 18 14 49 3 55 -6 4 -5 10 3 15 12 7 12
9 0 9 -11 0 -11 3 0 17 8 9 9 14 3 10 -8 -4 -12 15 -14 61 -2 71 -7 143 -9
153 0 3 -19 5 -41 5 -31 0 -40 -4 -41 -18z"/>
</g>
</svg>
